<svg width="313" height="285" viewBox="0 0 313 285" fill="none" xmlns="http://www.w3.org/2000/svg">
<path d="M186.625 24.8134C187.733 24.8134 187.738 23.0868 186.625 23.0868C185.513 23.0868 185.513 24.8134 186.625 24.8134Z" fill="#586368"/>
<path d="M84.2415 30.8822C77.1657 31.2515 71.5197 36.7577 71.1805 43.6126C70.09 65.5858 68.5228 113.222 68.716 156.021L73.0997 255.081C73.396 261.768 78.7543 267.189 85.6326 267.76L222.009 279.116C230.63 279.833 237.817 272.759 236.937 264.418C234.181 238.378 228.852 185.683 226.208 143.909C224.267 113.355 228.822 63.6358 231.476 38.5745C232.339 30.4355 225.508 23.4947 217.08 23.9371L84.2415 30.8822" fill="#4E7C31"/>
<path d="M77.6122 31.2301C70.5407 31.5995 64.8947 37.1057 64.5512 43.9605C63.4606 65.9337 61.8935 113.57 62.091 156.365L66.4704 255.429C66.7667 262.112 72.125 267.537 79.0032 268.108L215.383 279.464C224.005 280.181 231.188 273.107 230.308 264.766C227.551 238.726 222.227 186.03 219.578 144.257C217.642 113.698 222.193 63.9795 224.846 38.9224C225.709 30.7834 218.883 23.8427 210.45 24.2808L77.6122 31.2301Z" fill="#68AD40"/>
<path d="M219.063 39.9318C219.793 40.1465 220.579 40.3999 221.004 41.0313C221.481 41.7313 221.352 42.6634 221.206 43.4966C208.737 115.038 208.699 188.728 221.081 260.282C221.639 263.512 222.202 266.944 220.952 269.972C219.699 272.996 215.856 275.182 213.052 273.485C211.653 269.701 210.249 265.917 208.849 262.134C209.398 265.99 209.944 269.852 210.493 273.709C203.096 275.079 195.693 276.445 188.296 277.815C187.321 277.995 186.248 278.158 185.389 277.664C184.358 277.072 184.028 275.766 183.796 274.598C171.173 211.685 164.909 146.516 176.467 83.3972C178.82 70.5508 181.967 57.6272 187.871 45.9018C189.962 41.7528 192.615 34.7262 197.638 33.8758C203.242 32.9266 213.602 38.3211 219.063 39.9318" fill="#FFD092"/>
<path d="M60.5669 20.7975C53.4825 20.7975 47.5574 26.1706 46.8618 33.223C44.6249 55.8233 40.5718 104.864 38.5366 149.012L37.7423 251.405C37.6865 258.315 42.7573 264.195 49.5969 265.157L185.196 284.218C193.77 285.425 201.314 278.519 200.867 269.869C199.476 242.866 196.904 188.234 196.44 145.013C196.101 113.398 203.241 62.3688 207.2 36.6675C208.484 28.3224 202.031 20.7975 193.585 20.7975H60.5669Z" fill="#4E7C31"/>
<path d="M35.295 114.197C25.5186 124.213 16.6568 157.37 10.9635 173.678C9.93304 176.633 9.39202 177.896 1.93412 196.42C1.62069 197.202 1.87835 198.396 2.28624 199.087C3.30811 200.84 5.60942 201.239 7.0177 200.329C8.37876 199.452 7.84641 200.273 16.236 179.313C21.1092 167.128 31.0788 128.422 40.1897 119.089C41.452 117.792 41.5765 115.468 40.1897 114.197C38.82 112.938 36.6475 112.809 35.295 114.197" fill="#374347"/>
<path d="M13.9476 193.1C15.1627 197.635 12.3289 199.925 13.325 204.516C13.5354 205.47 13.8789 206.393 13.9948 207.364C14.1107 208.33 13.9561 209.395 13.2906 210.108C12.6208 210.817 11.3499 210.989 10.6887 210.267C11.0022 211.848 11.3199 213.428 11.6333 215.004C11.7965 215.816 11.951 216.679 11.6376 217.444C11.3242 218.204 10.3324 218.745 9.64543 218.29C10.092 219.742 10.1091 221.486 9.07435 222.598C8.03531 223.71 5.75114 223.491 5.39906 222.014C5.40765 222.538 4.64336 222.766 4.20541 222.473C3.76747 222.186 3.60005 221.632 3.46695 221.125C1.8912 215.095 0.783408 208.888 1.01097 202.656C1.23423 196.429 2.85293 190.149 6.3522 184.995C7.01342 184.02 7.79483 183.045 8.8897 182.599C9.98027 182.152 11.4573 182.44 11.9768 183.501C12.5908 184.742 12.9815 185.721 12.8785 187.001C12.7368 188.745 13.1146 189.99 13.9476 193.1" fill="#374347"/>
<path d="M53.9289 20.7975C46.8488 20.7975 40.9238 26.1706 40.2239 33.223C37.987 55.8233 33.9338 104.864 31.8987 149.012L31.1044 251.405C31.0529 258.315 36.1236 264.195 42.9632 265.157L178.558 284.218C187.132 285.425 194.676 278.519 194.233 269.869C192.838 242.866 190.271 188.234 189.803 145.013C189.463 113.398 196.608 62.3688 200.562 36.6675C201.85 28.3224 195.393 20.7975 186.952 20.7975H53.9289" fill="#68AD40"/>
<path d="M183.427 19.2083C184.444 14.6728 187.712 10.7042 191.967 8.83592C194.577 7.68916 197.462 7.31552 200.309 7.23821C206.118 7.0793 212.279 8.26044 216.599 12.1517C220.231 15.4245 222.185 19.582 221.687 24.4482C223.46 24.9894 225.521 26.0932 226.83 27.1756C227.852 22.5112 226.401 17.5935 224.125 13.3973C222.524 10.4423 220.416 7.72779 217.732 5.70485C211.185 0.769894 202.211 0.598144 194.122 1.91241C190.485 2.50512 186.831 3.36842 183.607 5.15514C175.917 9.40719 171.714 18.6758 172.349 27.4419C172.689 32.1363 174.44 36.9682 178.167 39.8415C181.89 42.7149 187.828 42.9168 191.001 39.4464C192.4 37.9174 193.276 35.3834 192.108 33.4764C190.618 31.0368 189.094 32.6002 187.153 32.0933C183.083 31.0239 182.723 22.3566 183.427 19.2083" fill="#383F42"/>
<path d="M156.373 16.8461C157.185 12.607 159.786 8.89185 163.178 7.14808C165.256 6.07863 167.558 5.72639 169.829 5.65767C174.457 5.50734 179.369 6.61117 182.808 10.249C185.707 13.3071 187.317 16.2706 186.917 20.819C188.536 20.8706 190.013 20.819 191.228 20.819C190.88 16.7474 190.623 15.3386 188.806 11.413C187.531 8.65128 185.853 6.11292 183.714 4.22312C178.498 -0.389712 171.345 -0.548627 164.896 0.679743C161.998 1.2295 159.087 2.04126 156.515 3.70772C150.388 7.68489 147.039 16.348 147.546 24.5428C147.816 28.928 149.211 33.4463 152.183 36.1307C155.149 38.8151 159.881 39.0084 162.41 35.7613C163.522 34.3311 164.222 31.9645 163.29 30.1821C162.105 27.9015 160.89 29.3661 159.344 28.8893C156.098 27.8886 155.811 19.7882 156.373 16.8461" fill="#383F42"/>
<path d="M128.207 16.8461C129.019 12.607 131.621 8.89185 135.013 7.14808C137.091 6.07863 139.392 5.72639 141.663 5.65767C146.292 5.50734 151.204 6.61117 154.643 10.249C157.541 13.3071 159.151 16.2706 158.752 20.819C160.37 20.8706 161.847 20.819 163.062 20.819C162.715 16.7474 162.457 15.3386 160.645 11.413C159.366 8.65128 157.687 6.11292 155.549 4.22312C150.332 -0.389712 143.179 -0.548627 136.73 0.679743C133.832 1.2295 130.921 2.04126 128.353 3.70772C122.222 7.68489 118.873 16.348 119.38 24.5428C119.65 28.928 121.046 33.4463 124.017 36.1307C126.984 38.8151 131.715 39.0084 134.244 35.7613C135.356 34.3311 136.056 31.9645 135.124 30.1821C133.939 27.9015 132.724 29.3661 131.179 28.8893C127.933 27.8886 127.645 19.7882 128.207 16.8461" fill="#383F42"/>
<path d="M101.373 16.8461C102.18 12.607 104.786 8.89185 108.178 7.14808C110.256 6.07863 112.557 5.72639 114.829 5.65767C119.457 5.50734 124.365 6.61117 127.808 10.249C130.706 13.3071 132.312 16.2706 131.917 20.819C133.536 20.8706 135.013 20.819 136.228 20.819C135.88 16.7474 135.622 15.3386 133.806 11.413C132.531 8.65128 130.852 6.11292 128.714 4.22312C123.497 -0.389712 116.344 -0.548627 109.895 0.679743C106.997 1.2295 104.086 2.04126 101.514 3.70772C95.3875 7.68489 92.0342 16.348 92.5451 24.5428C92.8156 28.928 94.211 33.4463 97.1779 36.1307C100.149 38.8151 104.881 39.0084 107.409 35.7613C108.521 34.3311 109.221 31.9645 108.29 30.1821C107.1 27.9015 105.889 29.3661 104.344 28.8893C101.098 27.8886 100.81 19.7882 101.373 16.8461" fill="#383F42"/>
<path d="M74.538 16.8461C75.3452 12.607 77.9514 8.89185 81.3433 7.14808C83.4214 6.07863 85.7227 5.72639 87.994 5.65767C92.6225 5.50734 97.53 6.61117 100.973 10.249C103.867 13.3071 105.477 16.2706 105.082 20.819C106.701 20.8706 108.178 20.819 109.393 20.819C109.045 16.7474 108.788 15.3386 106.971 11.413C105.696 8.65128 104.018 6.11292 101.879 4.22312C96.6584 -0.389712 89.5096 -0.548627 83.0607 0.679743C80.1583 1.2295 77.2516 2.04126 74.6798 3.70772C68.5529 7.68489 65.1996 16.348 65.7063 24.5428C65.981 28.928 67.3764 33.4463 70.3433 36.1307C73.3144 38.8151 78.0459 39.0084 80.5748 35.7613C81.6869 34.3311 82.3867 31.9645 81.455 30.1821C80.2657 27.9015 79.0506 29.3661 77.5092 28.8893C74.2633 27.8886 73.9756 19.7882 74.538 16.8461" fill="#383F42"/>
<path d="M51.1468 16.8461C51.954 12.607 54.5602 8.89185 57.9521 7.14808C60.0302 6.07863 62.3315 5.72639 64.5985 5.65767C69.2312 5.50734 74.1388 6.61117 77.5822 10.249C80.476 13.3071 82.0862 16.2706 81.6912 20.819C83.3098 20.8706 84.7868 20.819 86.0018 20.819C85.6541 16.7474 85.3965 15.3386 83.5803 11.413C82.3051 8.65128 80.622 6.11292 78.4881 4.22312C73.2672 -0.389712 66.1184 -0.548627 59.6695 0.679743C56.7671 1.2295 53.8603 2.04126 51.2885 3.70772C45.1573 7.68489 41.8083 16.348 42.3149 24.5428C42.5897 28.928 43.9851 33.4463 46.952 36.1307C49.9231 38.8151 54.6504 39.0084 57.1793 35.7613C58.2956 34.3311 58.9954 31.9645 58.0637 30.1821C56.8744 27.9015 55.6593 29.3661 54.1137 28.8893C50.872 27.8886 50.5844 19.7882 51.1468 16.8461" fill="#383F42"/>
<path d="M47.5316 98.6744C46.703 95.7109 46.1276 92.6271 46.4153 89.5648C46.8704 84.6942 49.5453 80.163 53.3022 77.0277C57.0547 73.8923 61.8163 72.0927 66.668 71.4742C68.7976 71.1994 70.9658 71.1435 73.0782 71.5C78.7543 72.4578 83.7134 76.4478 86.3539 81.5589C88.9944 86.6742 89.4281 92.786 88.0756 98.3824C87.277 101.681 85.8258 104.924 83.3355 107.234C81.5494 108.892 79.321 109.992 77.0712 110.928C72.9408 112.65 68.5314 113.926 64.0575 113.776C54.7534 113.466 49.8802 107.028 47.5316 98.6744" fill="#374347"/>
<path d="M50.2065 90.0114C46.5527 99.5463 50.6444 111.508 59.532 116.529C68.4153 121.554 81.0041 118.706 86.6114 110.172C88.1399 107.844 89.1661 105.203 89.7886 102.488C91.0381 97.0037 90.5829 91.0336 87.9424 86.0686C79.4498 70.1256 56.2475 74.2316 50.2065 90.0114Z" fill="#D2EEFF"/>
<path d="M88.2646 86.0686C85.9332 81.692 82.4941 78.8316 78.6041 77.3026C80.2013 78.7414 81.6096 80.5195 82.7517 82.667C85.3965 87.6277 85.8516 93.5978 84.5979 99.0825C83.9796 101.797 82.9534 104.438 81.4249 106.766C76.2769 114.6 65.2425 117.637 56.5953 114.192C57.5914 115.077 58.6819 115.867 59.854 116.529C68.7417 121.554 81.3305 118.706 86.9336 110.172C88.4664 107.844 89.4926 105.203 90.1108 102.488C91.3603 97.0037 90.9094 91.0336 88.2646 86.0686Z" fill="#C2EBFF"/>
<path d="M83.4214 98.1548C83.4214 105.757 77.2602 111.92 69.6606 111.92C62.0611 111.92 55.9041 105.757 55.9041 98.1548C55.9041 90.5527 62.0611 84.3936 69.6606 84.3936C77.2602 84.3936 83.4214 90.5527 83.4214 98.1548Z" fill="#374347"/>
<path d="M59.2145 96.5141C59.0471 97.4676 59.1415 98.5886 59.8971 99.1985C60.846 99.9716 62.2887 99.5206 63.2719 98.799C65.0108 97.5191 66.1099 95.5649 67.0888 93.6364C68.5314 90.7803 66.6295 88.0229 63.6798 90.063C61.6103 91.4975 59.661 94.0058 59.2145 96.5141Z" fill="white"/>
<path d="M176.016 98.885C176.304 95.6723 176.295 92.3823 175.406 89.277C173.994 84.3464 170.362 80.1931 165.888 77.6891C161.414 75.1852 156.158 74.2574 151.036 74.5538C148.795 74.6869 146.549 75.0477 144.437 75.8251C138.774 77.9082 134.437 82.9763 132.703 88.7616C130.968 94.5427 131.707 100.921 134.18 106.427C135.64 109.674 137.765 112.732 140.779 114.63C142.939 115.996 145.45 116.696 147.949 117.229C152.539 118.204 157.326 118.663 161.907 117.641C171.435 115.524 175.213 107.947 176.016 98.885" fill="#374347"/>
<path d="M171.589 90.471C177.197 99.5893 175.295 112.711 167.107 119.604C158.919 126.502 145.399 126.004 137.971 118.294C135.944 116.189 134.377 113.668 133.214 110.988C130.861 105.577 130.174 99.3402 131.939 93.7138C137.606 75.6404 162.311 75.3827 171.589 90.471" fill="#D2EEFF"/>
<path d="M131.608 93.7782C133.162 88.8174 136.155 85.2011 139.864 82.8732C138.499 84.6642 137.387 86.7687 136.627 89.1997C134.862 94.8304 135.549 101.067 137.898 106.474C139.062 109.154 140.633 111.675 142.66 113.78C149.478 120.858 161.435 121.85 169.683 116.628C168.825 117.736 167.854 118.758 166.772 119.668C158.589 126.562 145.064 126.064 137.636 118.358C135.61 116.254 134.042 113.733 132.879 111.053C130.53 105.641 129.839 99.4046 131.608 93.7782" fill="#C2EBFF"/>
<path d="M138.933 105.293C140.405 113.127 147.945 118.285 155.776 116.817C163.608 115.343 168.764 107.801 167.292 99.9673C165.823 92.1375 158.284 86.9749 150.452 88.4481C142.621 89.917 137.464 97.459 138.933 105.293Z" fill="#374347"/>
<path d="M149.907 91.9527C150.903 91.7423 152.08 91.811 152.745 92.5798C153.582 93.5505 153.162 95.0752 152.432 96.1318C151.148 97.9958 149.139 99.2156 147.151 100.298C144.205 101.909 141.255 100.002 143.299 96.8447C144.729 94.6285 147.297 92.5025 149.907 91.9527" fill="white"/>
<path d="M57.9779 53.3579C56.3077 54.423 54.616 56.0337 54.7877 58.0051C54.9594 60.0323 57.1363 61.3895 59.1715 61.4669C61.2067 61.5442 63.1474 60.711 65.0752 60.0624C69.3859 58.615 73.9843 58.0394 78.5183 58.3787C79.6046 58.456 80.6994 58.5892 81.7642 58.3874C82.8333 58.1855 83.8895 57.5842 84.3275 56.5878C85.1647 54.6636 83.3271 52.6191 81.4637 51.6614C74.4738 48.0707 64.4311 49.2605 57.9779 53.3579" fill="#383F42"/>
<path d="M144.424 56.7294C144.386 57.1246 144.416 57.5584 144.669 57.8633C144.871 58.1039 145.175 58.2241 145.467 58.3358C151.277 60.5563 157.086 62.7768 162.895 64.9974C164.707 65.6931 166.587 66.3975 168.524 66.2987C170.465 66.1999 172.491 65.0747 173.011 63.2021C173.461 61.5957 172.714 59.8906 171.714 58.5548C169.232 55.2477 165.201 53.3665 161.126 52.6664C157.271 52.005 145.008 50.6477 144.424 56.7294Z" fill="#383F42"/>
<path d="M101.485 161.416C118.809 163.177 144.248 156.515 159.319 148.26C164.651 145.34 169.773 141.792 173.144 136.926C159.821 157.649 135.064 171.165 109.415 172.669C94.5247 173.536 78.836 170.302 67.5311 161.128C63.8129 158.113 60.6528 154.535 57.7418 150.816C53.7402 145.713 49.9189 140.263 47.0165 134.525C50.417 137.411 59.7641 157.172 101.485 161.416" fill="#383F42"/>
<path d="M43.9638 137.39C44.3287 135.5 45.0801 133.391 46.8791 132.704C48.0599 132.257 49.3823 132.562 50.6103 132.871C50.5373 132.141 49.9705 131.531 49.305 131.226C48.6395 130.921 47.8839 130.87 47.1539 130.865C46.2351 130.861 45.2819 130.934 44.4876 131.394C43.5817 131.926 43.0192 132.893 42.6499 133.876C41.8642 135.998 41.8213 138.343 42.1991 140.572C42.5727 142.806 43.3498 144.949 44.1656 147.062C42.9849 144.004 43.3584 140.512 43.9638 137.39" fill="#383F42"/>
<path d="M175.909 139.821C175.964 141.1 175.668 142.372 175.295 143.596C174.664 145.679 173.796 147.698 172.723 149.592C175.497 146.693 177.145 142.745 177.27 138.734C177.291 137.961 177.257 137.175 177.021 136.436C176.076 133.494 171.057 131.999 169.404 135.135C170.559 135.672 172.019 135.075 173.268 135.577C174.99 136.264 175.831 138.042 175.909 139.821Z" fill="#383F42"/>
<path d="M224.778 147.672C241.437 159.586 267.439 158.409 286.266 151.816C288.292 151.108 288.992 149.239 288.537 147.822C288.022 146.242 286.257 144.953 284.54 145.554C272.402 149.802 259.942 151.198 247.474 149.553C251.136 150.047 242.6 149.304 235.361 146.276C238.303 147.517 232.262 145.348 226.68 141.04C229.303 143.068 223.473 139.03 218.651 132.79C220.952 135.775 214.065 127.863 210.893 117.542C210.395 115.919 208.6 114.721 206.9 115.275C205.264 115.803 204.096 117.53 204.628 119.269C204.976 119.269 208.261 135.861 224.778 147.672" fill="#374347"/>
<path d="M273.733 145.228C275.047 143.982 276.609 143.046 278.078 141.99C280.967 139.911 283.509 137.351 285.566 134.448C286.253 133.477 287.03 132.373 288.206 132.214C289.559 132.034 290.761 133.288 291.027 134.624C291.298 135.959 290.881 137.329 290.473 138.631C295.364 137.987 300.009 135.633 303.423 132.072C303.8 131.677 304.225 131.239 304.775 131.213C305.939 131.162 306.256 132.79 306.162 133.954C307.076 133.125 308.287 132.24 309.425 132.717C310.236 133.056 310.644 134.022 310.601 134.907C310.559 135.788 310.168 136.612 309.777 137.407C310.185 136.376 311.928 136.732 312.332 137.763C312.74 138.79 312.25 139.941 311.705 140.907C308.532 146.508 303.105 150.635 297.103 152.959C291.1 155.283 284.544 155.905 278.116 155.575C274.956 155.411 271.758 155.012 268.855 153.758C268.525 153.616 268.19 153.453 267.979 153.165C266.618 151.288 270.435 150.61 271.139 149.806C272.239 148.544 272.324 146.568 273.733 145.228Z" fill="#383F42"/>
</svg>
